<?xml version="1.0" encoding="UTF-8"?>
<svg id="Layer_1" data-name="Layer 1" xmlns="http://www.w3.org/2000/svg" viewBox="0 0 524.38 525.65">
  <defs>
    <style>
      .cls-1 {
        fill: #09577c;
      }

      .cls-2 {
        fill: #bee7f8;
      }
    </style>
  </defs>
  <path class="cls-2" d="M218.35,522.42l252.77-366.39c.21-1.53.05-1.37-1.33-1.35-7.41.12-16.55,1.85-23.92,1.88-55.38.21-119.66-17.31-153.76-63.72-17.98-24.47-21.37-44.03-28.79-72.43-1.44-5.51-5.32-14.07-5.94-18.93-.23-1.8.06-1.14,1.3-1.3,2.15-.29,5.75-.14,8.04-.03,79.97,3.65,152.29,37.51,201.71,100.88,99.56,127.66,61.85,312.41-78.31,391.36-51.87,29.22-112.94,39.07-171.78,30.04Z"/>
  <path class="cls-1" d="M171.33,10.83l-8.81,17.37-96.29,402.73c-25.02-27.77-44.23-61.81-54.99-97.7C-24.81,213.04,28.13,84.72,137.61,25.47c3.87-2.09,32.09-16.14,33.72-14.63Z"/>
</svg>